<svg width="91" height="23" viewBox="0 0 91 23" fill="none" xmlns="http://www.w3.org/2000/svg">
<path d="M0 3.33871C0 1.49479 1.49479 0 3.33871 0H11.3763C13.2886 0 14.8387 1.55015 14.8387 3.46237V6.67742H3.33871C1.49479 6.67742 0 5.18263 0 3.33871V3.33871Z" fill="#5AA6F8"/>
<path d="M0 11.4998C0 9.65592 1.49479 8.16113 3.33871 8.16113H14.8387V11.3762C14.8387 13.2884 13.2886 14.8386 11.3763 14.8386H3.33871C1.49479 14.8386 0 13.3438 0 11.4998V11.4998Z" fill="#5AA6F8"/>
<path d="M19.6613 -1.4594e-07C21.5052 -6.53394e-08 23 1.49479 23 3.33871L23 11.3763C23 13.2886 21.4498 14.8387 19.5376 14.8387L16.3226 14.8387L16.3226 3.33871C16.3226 1.49479 17.8174 -2.2654e-07 19.6613 -1.4594e-07V-1.4594e-07Z" fill="#ED6863"/>
<path d="M0 19.7846C0 17.8724 1.55015 16.3223 3.46237 16.3223H23V19.5373C23 21.4495 21.4498 22.9997 19.5376 22.9997H0V19.7846Z" fill="#5AA6F8"/>
<path d="M68.8312 2.23622H55.1264C53.6146 2.23622 52.3891 3.4335 52.3891 4.91041V5.80315H66.0939C67.6056 5.80315 68.8312 4.60587 68.8312 3.12896V2.23622ZM66.7275 6.67717H62.1818L61.9884 9.93701H59.2319L59.0385 6.67717H54.4927L54.6862 9.93701H52.3891V13.4803H68.8312V9.93701H66.5341L66.7275 6.67717ZM51.9055 15.748V19.2913H69.3147V15.748H51.9055Z" fill="#7A8390"/>
<path d="M89.1865 4.67419C89.1865 3.19728 87.961 2 86.4492 2H84.6407V9.34155C84.6407 10.8185 85.8663 12.0157 87.378 12.0157H89.1865V8.75591H91V5.33071H89.1865V4.67419ZM72.2125 6.65354C72.2125 5.20473 72.688 4.07874 73.6391 3.27559C74.6063 2.45669 75.9442 2.04724 77.6529 2.04724C79.3616 2.04724 80.6914 2.45669 81.6425 3.27559C82.6097 4.07874 83.0933 5.20473 83.0933 6.65354V7.48031C83.0933 8.92913 82.6097 10.063 81.6425 10.8819C80.6914 11.685 79.3616 12.0866 77.6529 12.0866C75.9442 12.0866 74.6063 11.685 73.6391 10.8819C72.688 10.063 72.2125 8.92913 72.2125 7.48031V6.65354ZM76.8066 7.71654C76.8066 7.9685 76.8791 8.17323 77.0242 8.33071C77.1854 8.47244 77.395 8.54331 77.6529 8.54331C77.9269 8.54331 78.1365 8.47244 78.2815 8.33071C78.4266 8.17323 78.4992 7.9685 78.4992 7.71654V6.41732C78.4992 6.14961 78.4266 5.94488 78.2815 5.80315C78.1365 5.66142 77.9269 5.59055 77.6529 5.59055C77.395 5.59055 77.1854 5.66142 77.0242 5.80315C76.8791 5.94488 76.8066 6.14961 76.8066 6.41732V7.71654ZM89.1865 16.3622C89.1865 15.3071 88.8238 14.4409 88.0984 13.7638C87.3891 13.0709 86.4864 12.7244 85.3903 12.7244H76.5406C75.4445 12.7244 74.5337 13.0709 73.8083 13.7638C73.0991 14.4409 72.7444 15.3071 72.7444 16.3622C72.7444 17.4173 73.0991 18.2913 73.8083 18.9843C74.5337 19.6614 75.4445 20 76.5406 20H85.3903C86.4864 20 87.3891 19.6614 88.0984 18.9843C88.8238 18.2913 89.1865 17.4173 89.1865 16.3622ZM84.1813 15.9134C84.3103 15.9134 84.4151 15.9606 84.4957 16.0551C84.5924 16.1339 84.6407 16.2362 84.6407 16.3622C84.6407 16.4882 84.5924 16.5984 84.4957 16.6929C84.4151 16.7717 84.3103 16.811 84.1813 16.811H77.7496C77.6206 16.811 77.5078 16.7717 77.4111 16.6929C77.3305 16.5984 77.2902 16.4882 77.2902 16.3622C77.2902 16.2362 77.3305 16.1339 77.4111 16.0551C77.5078 15.9606 77.6206 15.9134 77.7496 15.9134H84.1813Z" fill="#7A8390"/>
<path d="M49 2H44.1863V12.1605H49V2ZM31 9.24246C31 10.7233 32.2978 11.9237 33.8986 11.9237H43.1114V9.22369H35.8137V8.39474H42.8554V5.69474H35.8137V4.88947H43.1114V2.18947H31V9.24246ZM49 12.8711H34.4107C32.8099 12.8711 31.5121 14.0715 31.5121 15.5523V20H46.1014C47.7022 20 49 18.7996 49 17.3188V12.8711ZM44.1863 15.95V16.9211H36.3257V15.95H44.1863Z" fill="#7A8390"/>
</svg>
